<?xml version="1.0" encoding="utf-8"?>
<!-- Generator: Adobe Illustrator 23.0.2, SVG Export Plug-In . SVG Version: 6.00 Build 0)  -->
<svg version="1.1"
	 id="svg2" inkscape:version="0.91 r" sodipodi:docname="kawaii_earth.svg" xmlns:cc="http://creativecommons.org/ns#" xmlns:dc="http://purl.org/dc/elements/1.1/" xmlns:inkscape="http://www.inkscape.org/namespaces/inkscape" xmlns:rdf="http://www.w3.org/1999/02/22-rdf-syntax-ns#" xmlns:sodipodi="http://sodipodi.sourceforge.net/DTD/sodipodi-0.dtd" xmlns:svg="http://www.w3.org/2000/svg"
	 xmlns="http://www.w3.org/2000/svg" xmlns:xlink="http://www.w3.org/1999/xlink" x="0px" y="0px" viewBox="0 0 130.1 129.9"
	 style="enable-background:new 0 0 130.1 129.9;" xml:space="preserve">
<style type="text/css">
	.st0{clip-path:url(#SVGID_2_);}
	.st1{fill:#7CB7ED;}
	.st2{fill:none;}
	.st3{fill:#FFFFFF;}
	.st4{fill:#0FB55E;stroke:#0FB55E;stroke-width:6.6904;stroke-linecap:round;stroke-linejoin:round;}
	.st5{fill:none;stroke:#2C89A0;}
	.st6{fill:none;stroke:#2C89A0;stroke-width:6.6904;}
	.st7{fill:none;stroke:#000000;stroke-width:3;stroke-linecap:round;stroke-linejoin:round;}
	.st8{fill:#FFAAAA;}
</style>
<defs>
	
	<inkscape:path-effect  effect="spiro" id="path-effect4197" is_visible="true"></inkscape:path-effect>
</defs>
<sodipodi:namedview  bordercolor="#666666" borderopacity="1.0" fit-margin-bottom="10" fit-margin-left="10" fit-margin-right="10" fit-margin-top="10" id="base" inkscape:current-layer="layer1" inkscape:cx="55.960581" inkscape:cy="101.88681" inkscape:document-units="px" inkscape:pageopacity="0.0" inkscape:pageshadow="2" inkscape:window-height="1014" inkscape:window-maximized="1" inkscape:window-width="1920" inkscape:window-x="0" inkscape:window-y="27" inkscape:zoom="0.8701795" pagecolor="#ffffff" showgrid="false">
	</sodipodi:namedview>
<g id="layer1" transform="translate(-94.443047,-208.10078)" inkscape:groupmode="layer" inkscape:label="Layer 1">
	<g>
		<defs>
			<rect id="SVGID_1_" x="-31.8" y="132.6" width="382.6" height="287"/>
		</defs>
		<clipPath id="SVGID_2_">
			<use xlink:href="#SVGID_1_"  style="overflow:visible;"/>
		</clipPath>
		<g id="g16" transform="matrix(0.59787113,0,0,-0.59787113,-31.400209,504.53606)" class="st0">
			<g id="g4413" transform="matrix(0.81,0,0,0.81,76.000608,63.616306)">
				<g id="g4407" transform="translate(554.43,299.61)">
					<path id="path4409" inkscape:connector-curvature="0" class="st1" d="M-130.5,99.9c0-68.2-55.3-123.5-123.5-123.5
						c-68.2,0-123.5,55.3-123.5,123.5c0,68.2,55.3,123.5,123.5,123.5S-130.5,168.1-130.5,99.9"/>
					<path id="path4411" inkscape:connector-curvature="0" class="st2" d="M-128.1,99.9c0-69.6-56.4-126-126-126
						c-69.6,0-126,56.4-126,126c0,69.6,56.4,126,126,126C-184.5,225.8-128.1,169.4-128.1,99.9"/>
				</g>
				<g id="g26" transform="translate(447,151.47)">
					<path id="path28" inkscape:connector-curvature="0" class="st3" d="M-109,129.5c0,0-38.9-12.4-78.3,1c0,0,22.7,3.3,33.3,9.4
						C-143.4,146-109,129.5-109,129.5"/>
				</g>
				<g id="g30" transform="translate(487.95,212.66)">
					<path id="path32" inkscape:connector-curvature="0" class="st4" d="M-117.2,117.2c0,0-0.7,21.3-1.1,31.3
						c-0.4,9.9,3.3,16.5-1.5,25.7c-4.8,9.2-1.1,16.5-5.5,16.9c-4.4,0.4-18.4,2.9-26.1,0c-7.7-2.9-24.6,9.9-25,18.4
						c-0.4,8.5-2.9,14.7-2.9,14.7s9.6,15.4,12.1,14.9c2.6-0.5,2.9,9.8,4.8,10.5c1.8,0.7,21.3,5.9,26.8,5.9c5.5,0,1.5-5.9,1.5-5.9
						l16.9-6.2l2.9,6.6l14.7-4.4c0,0-0.4,8.8-3.7,9.9c-3.3,1.1-17.3,7.7-17.3,7.7s2.9-5.5,1.5-7c-1.5-1.5-6.3,7-6.3,7l-10.7,4
						c0,0-7.4-1.1-11.4-2.6c-4-1.5-5.9-8.5-5.9-8.5s-7.4-3.7-12.1-2.6c-4.8,1.1-3.3,10.3-3.3,10.3s8.8,0.7,9.6,3.3
						c0.7,2.6-6.2,7.4-6.2,7.4l5.5,2.6l5.1,9l8.1-0.9l2.6,9.6l-0.6,9.4c0,0,53.8-25.3,70.8-67.2l-8.8,5.5l3.7-8.1l1.5,1.1l4.4-8.1
						v-6.6l-2.2-10.2c0,0-14,23.6-20.6,29.7c0,0,9.6-22.1,21-33.5l3.7,3.8V193l-3.3-7.7l-4-12.1l-0.7-9.6v-11.4l-5.5-5.5l-5.5-4
						v-4.8l-5.5-7.4l-7.7-8.1l-7.7-5.1L-117.2,117.2L-117.2,117.2z"/>
				</g>
				<path id="path36" inkscape:connector-curvature="0" class="st4" d="M264.4,288.1l-7.4,9.6l1.1,5.1h4.8l-1,5.3l1.4,6.9l1.1,5.1
					l4.2,4.3c0,0,9.4,3.8,8.3,17c0,0,8.1,11,6.2,16.9c-1.8,5.9-12.9,5.5-12.9,5.5l-18.3,7.7c0,0-1.5,7.7-6.6,8.5
					c-5.1,0.7-6.6-2.9-8.8,0c-2.2,2.9-5.3,7.4-11.1,7.7c-5.8,0.4-13.2,5.1-13.2,5.1s-1.1,4-7.4,2.6c0,0-4,4-2.2,12.1
					c0,0-0.4,4.4-5.9,2.6c0,0-4.4,4.8-5.9,4.8c-1.5,0-3.7,14,2.9,20.2c0,0,6.2,7.4,13.2,2.9c0,0-0.4-7,0.7-10.3
					c1.1-3.3,3.3,4.8,3.3,4.8l0.4,10.3c0,0,4.8,2.2,8.8,5.9c4,3.7,2.6,8.5,8.1,12.1c5.5,3.7,6.6,0,6.6,0l0.4,6.3h5.1l12.5,5.5
					c0,0-5.9-0.4-8.1,2.9l15.8,8.5v4.8l-1.1,9.9l-3.7-4.4l-0.7,4.4l-7,0.9h-2.6l-5.9-2.7l-0.4-3.7l-6.6-2.9l-3.3,3.3l2.6,3.3
					l2.6,2.7l6.9,9.3c0,0-45.4-25.5-58.7-70.6c0,0-0.7-14.2-1.1-19.4c-0.4-5.1,4-9.9,4-9.9h4l1.5-3.7l3.3-1.1l1.8-1.1l1.1-2.9
					l1.5-5.2l3.3-0.7l1.8-3.3l2.2-0.4l-0.7,2.9h2.9l1.1-2.6l-3.3-2.6l-1.1-2.6l-0.4-5.9l0.4-4.4l0.4-4l-3.3-1.8l0.7-4l0.4-2.6v-4
					l-1.8-0.7l13.2-18l4-1.5l2.6-0.4l4-1.5l3.3-6.2c0,0,10.7-23.5,12.1-26.8C242.3,300.6,257.8,287,264.4,288.1"/>
				<g id="g38" transform="translate(400,455.04)">
					<path id="path40" inkscape:connector-curvature="0" class="st3" d="M-99.6,68.8c40.9,0,63.4-17.5,63.4-17.5s-15.2-6.5-38.7,0
						c0,0-18.2-0.9-30.9-6.3c-12.8-5.4-19.5,8.7-19.5,8.7s-11.2-7.7-30.4,1.5C-155.8,55.3-130.4,68.8-99.6,68.8"/>
				</g>
				<g id="g22" transform="translate(554.43,299.61)">
					<path id="path24" inkscape:connector-curvature="0" class="st5" d="M-130.5,99.9c0-68.2-55.3-123.5-123.5-123.5
						c-68.2,0-123.5,55.3-123.5,123.5c0,68.2,55.3,123.5,123.5,123.5S-130.5,168.1-130.5,99.9"/>
					<path id="path3655" inkscape:connector-curvature="0" class="st6" d="M-128.1,99.9c0-69.6-56.4-126-126-126
						c-69.6,0-126,56.4-126,126c0,69.6,56.4,126,126,126C-184.5,225.8-128.1,169.4-128.1,99.9"/>
				</g>
			</g>
		</g>
	</g>
	<ellipse id="path4144" cx="131.3" cy="264.3" rx="6" ry="5.7"/>
	<ellipse id="ellipse4146" cx="188.9" cy="264.3" rx="6" ry="5.7"/>
	<path id="path4167" inkscape:connector-curvature="0" sodipodi:nodetypes="cc" class="st7" d="M173.8,274.1
		c-1.1,11.8-25.9,12.2-27.4,0"/>
	<ellipse id="path4169" class="st8" cx="119.8" cy="278.6" rx="4.7" ry="2.4"/>
	<ellipse id="ellipse4171" class="st8" cx="195" cy="278.6" rx="4.7" ry="2.4"/>
</g>
</svg>
